<svg version="1.1" id="Layer_1" xmlns="http://www.w3.org/2000/svg" xmlns:xlink="http://www.w3.org/1999/xlink" x="0px" y="0px"
	 width="100%" viewBox="0 0 500 500" enable-background="new 0 0 500 500" xml:space="preserve">
<path fill="#000000" opacity="1.000000" stroke="none" 
	d="
M345.000000,501.000000 
	C230.000031,501.000000 115.500053,501.000000 1.000062,501.000000 
	C1.000041,334.333405 1.000041,167.666794 1.000021,1.000151 
	C167.666550,1.000101 334.333099,1.000101 500.999756,1.000050 
	C500.999817,167.666519 500.999817,334.333038 500.999908,500.999786 
	C449.166656,501.000000 397.333344,501.000000 345.000000,501.000000 
M203.421631,138.046768 
	C203.234558,138.356308 203.047485,138.665863 202.931183,138.990173 
	C202.931183,138.990173 202.920319,138.918686 202.219803,138.962234 
	C198.125717,143.608200 194.031631,148.254150 189.930252,152.933685 
	C189.930252,152.933685 189.896057,152.937241 189.254013,153.157150 
	C181.879684,160.973969 178.350891,170.704254 176.086914,180.874161 
	C175.060928,185.482910 175.325714,190.379028 174.938370,196.042084 
	C175.312469,202.044434 175.686569,208.046768 175.252365,214.234833 
	C175.785599,224.444839 178.777267,233.802246 184.975311,241.987488 
	C184.975311,241.987488 184.891144,242.058380 184.966400,242.716690 
	C185.612946,243.503967 186.259491,244.291245 186.995331,245.010345 
	C186.995331,245.010345 186.915466,245.089996 187.128204,245.713364 
	C188.052795,246.832809 188.977386,247.952271 189.980118,249.026550 
	C189.980118,249.026550 189.919083,249.093201 190.158127,249.716721 
	C191.406464,251.166214 192.654785,252.615723 193.968857,254.018158 
	C193.968857,254.018158 193.924301,254.085495 193.962646,254.785782 
	C196.621124,257.223389 199.279587,259.660980 201.992249,262.011627 
	C201.992249,262.011627 201.915527,262.079529 202.132050,262.716522 
	C203.730347,263.841248 205.328644,264.965973 206.996948,265.998779 
	C206.996948,265.998779 206.922729,266.089111 207.159439,266.747925 
	C211.454880,269.099152 215.750305,271.450409 220.781845,273.949738 
	C229.600555,277.187622 238.294357,280.848053 247.929626,281.104340 
	C248.710709,281.125122 250.011475,282.882629 250.078522,283.898621 
	C250.205200,285.817932 249.434921,287.777496 249.352249,289.733643 
	C249.197800,293.388367 249.268295,297.052612 248.502884,301.029541 
	C248.669373,301.341980 248.821106,301.918427 249.004471,301.928680 
	C255.331177,302.281952 259.196381,298.174530 263.034088,294.044678 
	C263.034088,294.044678 263.096466,294.067841 263.776794,294.031555 
	C265.215363,292.713928 266.653900,291.396271 268.035156,289.993134 
	C268.035156,289.993134 268.078033,290.082794 268.767944,290.032593 
	C270.452332,288.319916 272.136688,286.607269 274.288696,284.392487 
	C277.711243,281.936157 280.957062,279.169678 284.597229,277.095245 
	C290.231201,273.884613 296.134491,271.146515 302.572754,268.011780 
	C303.079468,267.699402 303.586212,267.387024 304.021515,267.061920 
	C304.021515,267.061920 304.029938,267.133972 304.567932,266.954163 
	C304.759338,266.639282 304.950745,266.324371 305.010162,266.005615 
	C305.010162,266.005615 305.007263,266.137604 305.671509,266.032288 
	C306.470947,265.388031 307.270386,264.743774 308.027924,264.024231 
	C308.027924,264.024231 308.092804,264.081085 308.722534,263.862579 
	C310.173706,262.604645 311.624908,261.346710 313.003845,260.063599 
	C313.003845,260.063599 313.027985,260.136169 313.568665,259.976807 
	C313.755676,259.664886 313.942719,259.352997 314.041260,259.039001 
	C314.041260,259.039001 314.044128,259.127502 314.584991,258.966705 
	C314.769775,258.651428 314.954559,258.336151 315.021942,258.020325 
	C315.021942,258.020325 315.023987,258.137695 315.569336,257.976074 
	C315.757904,257.660858 315.946472,257.345673 316.024841,257.027710 
	C316.024841,257.027710 316.025208,257.137970 316.563782,256.979889 
	C316.750854,256.670624 316.937958,256.361359 317.050507,256.024963 
	C317.050507,256.024963 317.078339,256.099243 317.649963,255.922394 
	C318.131042,255.309601 318.612091,254.696793 319.009399,254.024979 
	C319.009399,254.024979 319.102875,254.065216 319.735046,253.852402 
	C320.202850,252.895081 320.670654,251.937775 321.010712,250.994141 
	C321.010712,250.994141 321.024811,251.121887 321.555298,250.964279 
	C321.747345,250.659866 321.939362,250.355453 322.618103,249.939957 
	C322.927826,249.743301 323.079529,249.461578 323.026245,249.007233 
	C323.026245,249.007233 323.091309,249.083237 323.704254,248.858017 
	C323.854706,248.230927 324.005127,247.603836 324.066711,246.990707 
	C324.066711,246.990707 324.084930,247.078796 324.741211,246.839554 
	C326.199097,244.242722 327.656982,241.645889 329.035065,239.011887 
	C329.035065,239.011887 329.081909,239.086441 329.751221,238.830673 
	C330.537659,236.904770 331.324097,234.978867 332.025146,233.003204 
	C332.025146,233.003204 332.086578,233.080627 332.764435,232.792603 
	C334.119965,228.200165 335.475494,223.607712 336.994965,218.206528 
	C339.675140,207.874451 339.693512,197.471237 338.008026,186.186127 
	C336.037781,180.434708 334.067535,174.683289 332.037964,169.015411 
	C332.037964,169.015411 332.119354,168.952774 332.034668,168.216110 
	C331.361176,167.658554 330.687683,167.101013 330.042755,165.844971 
	C327.285858,161.266678 324.528961,156.688385 321.997803,151.468811 
	C321.701416,150.961548 321.405029,150.454285 321.089020,150.020813 
	C321.089020,150.020813 321.131256,149.953461 320.967438,149.424133 
	C320.660248,149.238861 320.353088,149.053589 320.043182,148.957138 
	C320.043182,148.957138 320.132019,148.954498 319.967651,148.424500 
	C319.660095,148.238892 319.352509,148.053284 319.031372,147.940430 
	C319.031372,147.940430 319.103577,147.924332 318.917297,147.351578 
	C318.298492,146.863144 317.679688,146.374710 317.055969,145.964569 
	C317.055969,145.964569 317.134399,145.963882 316.966034,145.423141 
	C316.650970,145.234833 316.335876,145.046509 316.014069,144.930374 
	C316.014069,144.930374 316.086334,144.925110 316.025391,144.222244 
	C314.710022,143.120239 313.394653,142.018234 312.067719,140.988052 
	C312.067719,140.988052 312.138306,140.970490 311.972656,140.433472 
	C311.662323,140.244736 311.351990,140.056015 311.037506,139.940430 
	C311.037506,139.940430 311.110382,139.933060 310.924530,139.361588 
	C310.311829,138.877655 309.699127,138.393723 309.016754,137.996140 
	C309.016754,137.996140 309.072571,137.901352 308.865417,137.302094 
	C308.257660,137.162125 307.649933,137.022171 306.837341,136.249344 
	C305.590729,135.477463 304.344086,134.705566 303.065430,133.925217 
	C303.065430,133.925217 303.057098,133.893143 302.825867,133.235703 
	C291.425659,125.410706 278.844971,120.922867 264.618683,119.109024 
	C259.350006,119.062241 254.078461,118.913689 248.815353,119.063133 
	C247.875565,119.089821 246.970840,120.350845 245.278244,120.976486 
	C244.253464,121.024483 243.228668,121.072479 241.306412,120.999413 
	C227.419022,122.257164 215.648468,128.358139 205.023041,136.926285 
	C205.023041,136.926285 204.949936,136.872849 204.418411,137.030457 
	C204.235336,137.339127 204.052261,137.647812 203.954071,137.957779 
	C203.954071,137.957779 203.949936,137.872986 203.421631,138.046768 
z"/>
<path fill="#0A207F" opacity="1.000000" stroke="none" 
	d="
M301.923553,268.208008 
	C296.134491,271.146515 290.231201,273.884613 284.597229,277.095245 
	C280.957062,279.169678 277.711243,281.936157 273.700989,284.668671 
	C271.434845,286.657501 269.756439,288.370148 268.078033,290.082794 
	C268.078033,290.082794 268.035156,289.993134 267.820862,289.667816 
	C266.103210,290.917603 264.599854,292.492737 263.096466,294.067841 
	C263.096466,294.067841 263.034088,294.044678 262.876526,293.678284 
	C261.256317,294.372833 259.893066,295.623352 258.309540,296.453613 
	C255.355698,298.002319 252.273804,299.306793 249.245209,300.712891 
	C249.268295,297.052612 249.197800,293.388367 249.352249,289.733643 
	C249.434921,287.777496 250.205200,285.817932 250.078522,283.898621 
	C250.011475,282.882629 248.710709,281.125122 247.929626,281.104340 
	C238.294357,280.848053 229.600555,277.187622 220.332260,273.550659 
	C215.562683,270.797424 211.242706,268.443268 206.922729,266.089111 
	C206.922729,266.089111 206.996948,265.998779 207.298889,265.777527 
	C205.705734,264.397339 203.810638,263.238434 201.915527,262.079529 
	C201.915527,262.079529 201.992249,262.011627 202.252991,261.786133 
	C199.650589,259.068939 196.787445,256.577209 193.924301,254.085495 
	C193.924301,254.085495 193.968857,254.018158 194.363068,253.868622 
	C193.144547,252.177139 191.531815,250.635178 189.919083,249.093201 
	C189.919083,249.093201 189.980118,249.026550 190.381836,248.848022 
	C189.494186,247.476318 188.204819,246.283157 186.915466,245.089996 
	C186.915466,245.089996 186.995331,245.010345 187.388870,244.814423 
	C186.818665,243.765121 185.854904,242.911743 184.891144,242.058380 
	C184.891144,242.058380 184.975311,241.987488 185.345734,241.847458 
	C182.497650,232.487991 179.279160,223.268555 176.060669,214.049118 
	C175.686569,208.046768 175.312469,202.044434 175.129822,195.213898 
	C177.169174,180.000427 180.418274,166.142166 190.103455,154.660614 
	C190.357834,154.359055 189.979385,153.523682 189.896057,152.937241 
	C189.896057,152.937241 189.930252,152.933685 190.108597,153.308456 
	C193.912720,149.777054 197.571854,145.900925 201.137787,141.940826 
	C201.904785,141.089066 202.334991,139.934036 202.920319,138.918686 
	C202.920319,138.918686 202.931183,138.990173 203.364655,139.195648 
	C203.848740,138.891739 203.899338,138.382370 203.949936,137.872986 
	C203.949936,137.872986 203.954071,137.957779 204.377670,138.253021 
	C204.850830,137.989792 204.900391,137.431320 204.949951,136.872849 
	C204.949936,136.872849 205.023041,136.926285 205.124084,137.338272 
	C214.805267,133.111450 224.351639,128.400726 233.987839,123.881454 
	C236.586548,122.662682 239.457764,122.024933 242.203888,121.120476 
	C243.228668,121.072479 244.253464,121.024483 246.100632,121.003288 
	C251.377716,120.754883 255.832413,120.479668 260.516541,120.400085 
	C261.137604,120.578995 261.529266,120.562263 262.294739,120.655251 
	C263.445282,120.779602 264.221954,120.794243 265.390381,120.929787 
	C277.978699,123.052315 289.675781,126.404991 300.054443,133.464996 
	C300.805084,133.975616 302.044769,133.767242 303.057098,133.893143 
	C303.057098,133.893143 303.065430,133.925217 302.714325,134.106583 
	C303.909485,135.479813 305.455719,136.671692 307.375641,138.175842 
	C308.190399,138.292542 308.631470,138.096939 309.072571,137.901352 
	C309.072571,137.901352 309.016754,137.996140 308.596313,138.243607 
	C309.154053,138.971741 310.132233,139.452408 311.110382,139.933075 
	C311.110382,139.933060 311.037506,139.940430 310.757751,140.337860 
	C311.031403,140.813675 311.584869,140.892090 312.138306,140.970490 
	C312.138306,140.970490 312.067719,140.988052 311.710419,141.194580 
	C312.930847,142.575775 314.508606,143.750443 316.086334,144.925110 
	C316.086334,144.925110 316.014069,144.930374 315.816315,145.342789 
	C316.123840,145.824768 316.629120,145.894333 317.134399,145.963882 
	C317.134399,145.963882 317.055969,145.964569 316.711945,146.281754 
	C317.279816,147.040741 318.191681,147.482544 319.103577,147.924347 
	C319.103577,147.924332 319.031372,147.940430 318.731384,148.365036 
	C318.998260,148.844589 319.565155,148.899536 320.132019,148.954498 
	C320.132019,148.954498 320.043182,148.957138 319.730225,149.376801 
	C319.988586,149.848801 320.559906,149.901123 321.131256,149.953461 
	C321.131256,149.953461 321.089020,150.020813 320.660217,150.104584 
	C320.744995,150.828934 321.258514,151.469513 321.772064,152.110092 
	C324.528961,156.688385 327.285858,161.266678 330.044678,166.609650 
	C330.737488,167.900467 331.428436,168.426620 332.119354,168.952774 
	C332.119354,168.952774 332.037964,169.015411 331.638245,169.147949 
	C332.210480,171.897995 333.181976,174.515656 334.154419,177.132980 
	C335.378693,180.428024 336.603729,183.722794 337.828430,187.017685 
	C339.693512,197.471237 339.675140,207.874451 336.594482,218.766235 
	C334.824860,223.910828 333.455719,228.495728 332.086578,233.080627 
	C332.086578,233.080627 332.025146,233.003204 331.744080,232.742767 
	C330.669312,234.683701 329.875610,236.885071 329.081909,239.086441 
	C329.081909,239.086441 329.035065,239.011887 328.761780,238.774139 
	C327.020660,241.383850 325.552795,244.231323 324.084930,247.078796 
	C324.084930,247.078796 324.066711,246.990707 323.623413,246.946930 
	C323.150513,247.629852 323.120911,248.356537 323.091309,249.083237 
	C323.091309,249.083237 323.026245,249.007233 322.867035,248.675674 
	C322.166595,248.895859 321.625336,249.447586 320.880615,250.270004 
	C320.793030,250.734421 320.908936,250.928146 321.024811,251.121887 
	C321.024811,251.121887 321.010712,250.994141 320.637482,250.926636 
	C319.877136,251.927826 319.490021,252.996521 319.102875,254.065216 
	C319.102875,254.065216 319.009399,254.024979 318.740601,253.616959 
	C318.007324,254.172379 317.542847,255.135803 317.078339,256.099243 
	C317.078339,256.099243 317.050507,256.024963 316.670807,255.726913 
	C316.202454,255.998566 316.113831,256.568268 316.025208,257.137970 
	C316.025208,257.137970 316.024841,257.027710 315.656616,256.806152 
	C315.200256,257.102264 315.112122,257.619995 315.023987,258.137695 
	C315.023987,258.137695 315.021942,258.020325 314.622467,257.824585 
	C314.163361,258.128387 314.103760,258.627930 314.044128,259.127502 
	C314.044128,259.127502 314.041260,259.039001 313.658875,258.769836 
	C313.193634,259.045837 313.110809,259.591003 313.027985,260.136169 
	C313.027985,260.136169 313.003845,260.063599 312.835632,259.675934 
	C311.142517,260.885864 309.617676,262.483490 308.092804,264.081085 
	C308.092804,264.081085 308.027924,264.024231 307.860474,263.631714 
	C306.797791,264.205353 305.902527,265.171478 305.007263,266.137604 
	C305.007263,266.137604 305.010162,266.005615 304.642212,265.860107 
	C304.192810,266.187714 304.111389,266.660828 304.029938,267.133972 
	C304.029938,267.133972 304.021515,267.061920 303.798126,266.704315 
	C303.024323,266.967133 302.473938,267.587555 301.923553,268.208008 
M306.096741,153.286713 
	C305.756592,153.013916 305.416443,152.741119 304.829132,151.888840 
	C297.243286,144.310577 288.669434,138.387543 277.520660,135.405365 
	C276.342255,135.185104 275.163849,134.964828 273.401245,134.269394 
	C269.977966,133.640259 266.577606,132.808350 263.127350,132.417618 
	C249.240295,130.845001 236.140778,133.650467 223.012466,139.897583 
	C217.888382,143.881744 212.764297,147.865906 207.017502,152.041382 
	C204.443512,155.054657 201.869522,158.067932 198.887085,161.623184 
	C198.185440,163.027252 197.483795,164.431320 196.896835,165.879898 
	C196.896835,165.879898 196.834229,165.773956 196.247513,166.152725 
	C180.839828,192.020767 183.770081,217.078201 199.684647,241.495605 
	C200.400894,242.594513 201.986862,243.126587 203.116699,243.838684 
	C203.116699,243.838684 203.033417,243.786453 202.452621,244.345901 
	C208.933228,252.008789 216.456818,258.039948 225.639191,262.569977 
	C250.822296,274.993835 289.059570,270.303253 310.641266,244.849472 
	C311.109741,244.265961 311.578217,243.682434 312.339172,242.481537 
	C324.130432,227.068680 328.337097,209.674469 325.723572,190.572845 
	C323.728973,175.994858 316.614319,164.054825 306.259003,153.872223 
	C306.259003,153.872223 306.335602,153.906586 306.096741,153.286713 
z"/>
<path fill="#E2E9F8" opacity="1.000000" stroke="none" 
	d="
M189.575043,153.047195 
	C189.979385,153.523682 190.357834,154.359055 190.103455,154.660614 
	C180.418274,166.142166 177.169174,180.000427 175.163116,194.765244 
	C175.325714,190.379028 175.060928,185.482910 176.086914,180.874161 
	C178.350891,170.704254 181.879684,160.973969 189.575043,153.047195 
z"/>
<path fill="#E2E9F8" opacity="1.000000" stroke="none" 
	d="
M241.755157,121.059944 
	C239.457764,122.024933 236.586548,122.662682 233.987839,123.881454 
	C224.351639,128.400726 214.805267,133.111450 205.083527,137.321838 
	C215.648468,128.358139 227.419022,122.257164 241.755157,121.059944 
z"/>
<path fill="#E2E9F8" opacity="1.000000" stroke="none" 
	d="
M302.941467,133.564423 
	C302.044769,133.767242 300.805084,133.975616 300.054443,133.464996 
	C289.675781,126.404991 277.978699,123.052315 265.398834,120.695427 
	C265.015594,120.340157 265.048370,119.872269 265.048370,119.872269 
	C278.844971,120.922867 291.425659,125.410706 302.941467,133.564423 
z"/>
<path fill="#E2E9F8" opacity="1.000000" stroke="none" 
	d="
M175.656525,214.141968 
	C179.279160,223.268555 182.497650,232.487991 185.311188,241.889526 
	C178.777267,233.802246 175.785599,224.444839 175.656525,214.141968 
z"/>
<path fill="#E2E9F8" opacity="1.000000" stroke="none" 
	d="
M202.570068,138.940460 
	C202.334991,139.934036 201.904785,141.089066 201.137787,141.940826 
	C197.571854,145.900925 193.912720,149.777054 190.112244,153.291672 
	C194.031631,148.254150 198.125717,143.608200 202.570068,138.940460 
z"/>
<path fill="#E2E9F8" opacity="1.000000" stroke="none" 
	d="
M337.918213,186.601898 
	C336.603729,183.722794 335.378693,180.428024 334.154419,177.132980 
	C333.181976,174.515656 332.210480,171.897995 331.667908,169.106171 
	C334.067535,174.683289 336.037781,180.434708 337.918213,186.601898 
z"/>
<path fill="#E6EDF9" opacity="1.000000" stroke="none" 
	d="
M264.833527,119.490646 
	C265.048370,119.872269 265.015594,120.340157 265.007141,120.574516 
	C264.221954,120.794243 263.445282,120.779602 262.037994,120.539757 
	C261.033966,120.277847 260.660553,120.241150 260.287109,120.204453 
	C255.832413,120.479668 251.377716,120.754883 246.486481,121.036011 
	C246.970840,120.350845 247.875565,119.089821 248.815353,119.063133 
	C254.078461,118.913689 259.350006,119.062241 264.833527,119.490646 
z"/>
<path fill="#E6EDF9" opacity="1.000000" stroke="none" 
	d="
M248.874039,300.871216 
	C252.273804,299.306793 255.355698,298.002319 258.309540,296.453613 
	C259.893066,295.623352 261.256317,294.372833 262.896515,293.704895 
	C259.196381,298.174530 255.331177,302.281952 249.004471,301.928680 
	C248.821106,301.918427 248.669373,301.341980 248.874039,300.871216 
z"/>
<path fill="#E2E9F8" opacity="1.000000" stroke="none" 
	d="
M207.041077,266.418518 
	C211.242706,268.443268 215.562683,270.797424 219.964203,273.476624 
	C215.750305,271.450409 211.454880,269.099152 207.041077,266.418518 
z"/>
<path fill="#E6EDF9" opacity="1.000000" stroke="none" 
	d="
M332.425507,232.936615 
	C333.455719,228.495728 334.824860,223.910828 336.512512,219.170593 
	C335.475494,223.607712 334.119965,228.200165 332.425507,232.936615 
z"/>
<path fill="#E2E9F8" opacity="1.000000" stroke="none" 
	d="
M193.943481,254.435638 
	C196.787445,256.577209 199.650589,259.068939 202.225891,261.829651 
	C199.279587,259.660980 196.621124,257.223389 193.943481,254.435638 
z"/>
<path fill="#E6EDF9" opacity="1.000000" stroke="none" 
	d="
M324.413086,246.959167 
	C325.552795,244.231323 327.020660,241.383850 328.801697,238.792725 
	C327.656982,241.645889 326.199097,244.242722 324.413086,246.959167 
z"/>
<path fill="#E6EDF9" opacity="1.000000" stroke="none" 
	d="
M268.422974,290.057678 
	C269.756439,288.370148 271.434845,286.657501 273.467163,284.919739 
	C272.136688,286.607269 270.452332,288.319916 268.422974,290.057678 
z"/>
<path fill="#E2E9F8" opacity="1.000000" stroke="none" 
	d="
M202.023788,262.398010 
	C203.810638,263.238434 205.705734,264.397339 207.263885,265.823456 
	C205.328644,264.965973 203.730347,263.841248 202.023788,262.398010 
z"/>
<path fill="#E6EDF9" opacity="1.000000" stroke="none" 
	d="
M329.416565,238.958557 
	C329.875610,236.885071 330.669312,234.683701 331.786804,232.767639 
	C331.324097,234.978867 330.537659,236.904770 329.416565,238.958557 
z"/>
<path fill="#E6EDF9" opacity="1.000000" stroke="none" 
	d="
M263.436646,294.049683 
	C264.599854,292.492737 266.103210,290.917603 267.849548,289.710571 
	C266.653900,291.396271 265.215363,292.713928 263.436646,294.049683 
z"/>
<path fill="#E2E9F8" opacity="1.000000" stroke="none" 
	d="
M190.038605,249.404968 
	C191.531815,250.635178 193.144547,252.177139 194.330200,253.892151 
	C192.654785,252.615723 191.406464,251.166214 190.038605,249.404968 
z"/>
<path fill="#E6EDF9" opacity="1.000000" stroke="none" 
	d="
M316.055847,144.573669 
	C314.508606,143.750443 312.930847,142.575775 311.716187,141.158661 
	C313.394653,142.018234 314.710022,143.120239 316.055847,144.573669 
z"/>
<path fill="#E2E9F8" opacity="1.000000" stroke="none" 
	d="
M308.407654,263.971832 
	C309.617676,262.483490 311.142517,260.885864 312.871735,259.688507 
	C311.624908,261.346710 310.173706,262.604645 308.407654,263.971832 
z"/>
<path fill="#E2E9F8" opacity="1.000000" stroke="none" 
	d="
M307.001984,137.863556 
	C305.455719,136.671692 303.909485,135.479813 302.730347,134.110809 
	C304.344086,134.705566 305.590729,135.477463 306.932953,136.811249 
	C307.028564,137.373154 307.001984,137.863556 307.001984,137.863556 
z"/>
<path fill="#E2E9F8" opacity="1.000000" stroke="none" 
	d="
M187.021835,245.401672 
	C188.204819,246.283157 189.494186,247.476318 190.342758,248.870605 
	C188.977386,247.952271 188.052795,246.832809 187.021835,245.401672 
z"/>
<path fill="#E2E9F8" opacity="1.000000" stroke="none" 
	d="
M319.418945,253.958801 
	C319.490021,252.996521 319.877136,251.927826 320.701355,250.919800 
	C320.670654,251.937775 320.202850,252.895081 319.418945,253.958801 
z"/>
<path fill="#E2E9F8" opacity="1.000000" stroke="none" 
	d="
M184.928772,242.387543 
	C185.854904,242.911743 186.818665,243.765121 187.344208,244.848511 
	C186.259491,244.291245 185.612946,243.503967 184.928772,242.387543 
z"/>
<path fill="#E2E9F8" opacity="1.000000" stroke="none" 
	d="
M305.339386,266.084961 
	C305.902527,265.171478 306.797791,264.205353 307.881470,263.669373 
	C307.270386,264.743774 306.470947,265.388031 305.339386,266.084961 
z"/>
<path fill="#E2E9F8" opacity="1.000000" stroke="none" 
	d="
M332.077026,168.584442 
	C331.428436,168.426620 330.737488,167.900467 330.030396,166.958893 
	C330.687683,167.101013 331.361176,167.658554 332.077026,168.584442 
z"/>
<path fill="#E2E9F8" opacity="1.000000" stroke="none" 
	d="
M317.364136,256.010803 
	C317.542847,255.135803 318.007324,254.172379 318.782501,253.646469 
	C318.612091,254.696793 318.131042,255.309601 317.364136,256.010803 
z"/>
<path fill="#E6EDF9" opacity="1.000000" stroke="none" 
	d="
M319.010437,147.637970 
	C318.191681,147.482544 317.279816,147.040741 316.714417,146.242615 
	C317.679688,146.374710 318.298492,146.863144 319.010437,147.637970 
z"/>
<path fill="#E6EDF9" opacity="1.000000" stroke="none" 
	d="
M311.017456,139.647339 
	C310.132233,139.452408 309.154053,138.971741 308.631165,138.200439 
	C309.699127,138.393723 310.311829,138.877655 311.017456,139.647339 
z"/>
<path fill="#E6EDF9" opacity="1.000000" stroke="none" 
	d="
M321.884949,151.789459 
	C321.258514,151.469513 320.744995,150.828934 320.670044,150.067688 
	C321.405029,150.454285 321.701416,150.961548 321.884949,151.789459 
z"/>
<path fill="#E6EDF9" opacity="1.000000" stroke="none" 
	d="
M323.397766,248.970627 
	C323.120911,248.356537 323.150513,247.629852 323.667816,246.939957 
	C324.005127,247.603836 323.854706,248.230927 323.397766,248.970627 
z"/>
<path fill="#E2E9F8" opacity="1.000000" stroke="none" 
	d="
M302.248169,268.109894 
	C302.473938,267.587555 303.024323,266.967133 303.833832,266.710693 
	C303.586212,267.387024 303.079468,267.699402 302.248169,268.109894 
z"/>
<path fill="#E6EDF9" opacity="1.000000" stroke="none" 
	d="
M321.084106,249.999329 
	C321.625336,249.447586 322.166595,248.895859 322.890503,248.719452 
	C323.079529,249.461578 322.927826,249.743301 322.113159,249.977570 
	C321.433502,250.009888 321.258789,250.004608 321.084106,249.999329 
z"/>
<path fill="#E6EDF9" opacity="1.000000" stroke="none" 
	d="
M307.375641,138.175842 
	C307.001984,137.863556 307.028564,137.373154 307.035370,137.127686 
	C307.649933,137.022171 308.257660,137.162125 308.968994,137.601715 
	C308.631470,138.096939 308.190399,138.292542 307.375641,138.175842 
z"/>
<path fill="#E2E9F8" opacity="1.000000" stroke="none" 
	d="
M304.298950,267.044067 
	C304.111389,266.660828 304.192810,266.187714 304.708191,265.862000 
	C304.950745,266.324371 304.759338,266.639282 304.298950,267.044067 
z"/>
<path fill="#E6EDF9" opacity="1.000000" stroke="none" 
	d="
M321.049347,149.688797 
	C320.559906,149.901123 319.988586,149.848801 319.731567,149.332397 
	C320.353088,149.053589 320.660248,149.238861 321.049347,149.688797 
z"/>
<path fill="#E6EDF9" opacity="1.000000" stroke="none" 
	d="
M320.049835,148.689499 
	C319.565155,148.899536 318.998260,148.844589 318.738159,148.328674 
	C319.352509,148.053284 319.660095,148.238892 320.049835,148.689499 
z"/>
<path fill="#E2E9F8" opacity="1.000000" stroke="none" 
	d="
M316.294495,257.058929 
	C316.113831,256.568268 316.202454,255.998566 316.708069,255.740479 
	C316.937958,256.361359 316.750854,256.670624 316.294495,257.058929 
z"/>
<path fill="#E2E9F8" opacity="1.000000" stroke="none" 
	d="
M313.298340,260.056488 
	C313.110809,259.591003 313.193634,259.045837 313.703125,258.770874 
	C313.942719,259.352997 313.755676,259.664886 313.298340,260.056488 
z"/>
<path fill="#E2E9F8" opacity="1.000000" stroke="none" 
	d="
M314.314575,259.047119 
	C314.103760,258.627930 314.163361,258.128387 314.681152,257.824829 
	C314.954559,258.336151 314.769775,258.651428 314.314575,259.047119 
z"/>
<path fill="#E2E9F8" opacity="1.000000" stroke="none" 
	d="
M315.296661,258.056885 
	C315.112122,257.619995 315.200256,257.102264 315.711700,256.807526 
	C315.946472,257.345673 315.757904,257.660858 315.296661,258.056885 
z"/>
<path fill="#E2E9F8" opacity="1.000000" stroke="none" 
	d="
M204.684174,136.951660 
	C204.900391,137.431320 204.850830,137.989792 204.335236,138.252380 
	C204.052261,137.647812 204.235336,137.339127 204.684174,136.951660 
z"/>
<path fill="#E2E9F8" opacity="1.000000" stroke="none" 
	d="
M320.880615,250.270004 
	C321.258789,250.004608 321.433502,250.009888 321.869812,250.033112 
	C321.939362,250.355453 321.747345,250.659866 321.290039,251.043091 
	C320.908936,250.928146 320.793030,250.734421 320.880615,250.270004 
z"/>
<path fill="#E6EDF9" opacity="1.000000" stroke="none" 
	d="
M317.050232,145.693512 
	C316.629120,145.894333 316.123840,145.824768 315.819702,145.306702 
	C316.335876,145.046509 316.650970,145.234833 317.050232,145.693512 
z"/>
<path fill="#E6EDF9" opacity="1.000000" stroke="none" 
	d="
M312.055481,140.701981 
	C311.584869,140.892090 311.031403,140.813675 310.759827,140.301270 
	C311.351990,140.056015 311.662323,140.244736 312.055481,140.701981 
z"/>
<path fill="#E2E9F8" opacity="1.000000" stroke="none" 
	d="
M203.685791,137.959869 
	C203.899338,138.382370 203.848740,138.891739 203.329285,139.188263 
	C203.047485,138.665863 203.234558,138.356308 203.685791,137.959869 
z"/>
<path fill="#F6FAFA" opacity="1.000000" stroke="none" 
	d="
M306.326019,153.821533 
	C316.614319,164.054825 323.728973,175.994858 325.723572,190.572845 
	C328.337097,209.674469 324.130432,227.068680 311.812500,242.636551 
	C311.063049,241.174301 310.840302,239.557037 310.691650,237.532745 
	C310.728729,235.748032 310.691742,234.370346 310.743347,232.743164 
	C310.778503,232.325424 310.725159,232.157181 310.741302,231.525757 
	C310.747284,217.393555 310.683777,203.724503 310.725220,189.721130 
	C310.182129,188.709427 309.534058,188.032059 308.454956,187.278290 
	C305.684906,187.245193 303.345886,187.288498 300.753204,187.248581 
	C300.329376,187.217789 300.159271,187.270187 299.599884,187.253174 
	C298.163116,187.238266 297.115601,187.292770 295.684753,187.253113 
	C294.746979,188.477173 293.739838,189.786255 293.712891,191.115204 
	C293.558533,198.729736 293.636658,206.348984 293.636444,213.966629 
	C293.636139,223.876877 293.636353,233.787140 293.636353,243.703934 
	C299.417847,244.162674 304.749298,244.585709 310.080750,245.008743 
	C289.059570,270.303253 250.822296,274.993835 225.639191,262.569977 
	C216.456818,258.039948 208.933228,252.008789 203.185837,244.202240 
	C209.157181,244.058578 214.395309,244.058578 219.630737,244.058578 
	C219.630737,236.346085 219.630737,229.301636 219.630737,222.235046 
	C213.917313,222.235046 208.546738,222.235046 203.167740,222.235046 
	C203.167740,229.707382 203.167740,236.815033 203.167740,243.922684 
	C201.986862,243.126587 200.400894,242.594513 199.684647,241.495605 
	C183.770081,217.078201 180.839828,192.020767 196.580536,166.331863 
	C197.225555,167.501068 197.537567,168.491119 197.849564,169.481186 
	C198.218704,169.501617 198.587830,169.522034 198.956955,169.542465 
	C199.353821,168.172928 199.750702,166.803391 200.241302,165.110443 
	C198.652969,165.443314 197.717560,165.639343 196.782135,165.835388 
	C197.483795,164.431320 198.185440,163.027252 199.299042,161.578674 
	C200.812729,161.665619 202.376709,162.328888 202.939178,161.839981 
	C205.998672,159.180573 208.811234,156.237076 212.348755,152.762848 
	C210.100204,152.326950 208.870209,152.088516 207.640213,151.850067 
	C212.764297,147.865906 217.888382,143.881744 223.650085,140.090668 
	C226.687042,140.824112 229.299820,142.256180 231.446793,141.742294 
	C238.694321,140.007553 245.691422,137.192871 252.961929,135.603973 
	C256.051819,134.928726 259.573669,136.514648 262.914154,136.626144 
	C266.682098,136.751907 271.068115,139.794601 273.985443,134.744568 
	C275.163849,134.964828 276.342255,135.185104 277.663300,135.951447 
	C278.359802,137.430054 278.688080,138.714188 279.504272,139.237823 
	C284.671387,142.552902 290.038574,145.561005 295.149170,148.957245 
	C297.933624,150.807648 300.387878,153.171570 302.908905,155.396942 
	C305.365967,157.565857 305.889038,155.863754 306.326019,153.821533 
M292.706299,177.667923 
	C292.517792,176.067474 292.329315,174.467010 291.806152,172.167862 
	C289.746796,171.800720 287.649872,171.026428 285.641510,171.211792 
	C284.336395,171.332230 282.385468,172.665970 282.117188,173.788956 
	C281.759094,175.287994 282.305298,178.172546 283.258209,178.573761 
	C285.291595,179.429916 287.836670,179.070755 290.768036,179.147308 
	C291.208252,178.795517 291.648438,178.443726 292.706299,177.667923 
M199.560715,203.888824 
	C199.560715,203.888824 199.131668,203.858490 198.852768,203.189941 
	C198.572281,203.015503 198.307693,202.805359 198.008820,202.672150 
	C195.172882,201.408127 193.069824,202.105621 192.223618,205.181747 
	C191.436142,208.044418 194.305054,211.904495 197.383896,211.854919 
	C199.959167,211.813461 202.900452,211.702362 202.195908,207.484726 
	C201.522446,203.453201 204.179886,201.249680 207.183701,199.139877 
	C209.559784,197.471008 211.537964,195.235596 213.692825,193.251740 
	C208.044189,193.510895 205.942642,195.400894 199.560715,203.888824 
M231.775635,229.496765 
	C231.775635,234.252686 231.775635,239.008606 231.775635,243.813354 
	C237.536285,243.813354 242.607239,243.813354 247.850159,243.813354 
	C247.850159,224.961838 247.850159,206.403931 247.850159,187.672440 
	C242.409409,187.672440 237.231583,187.672440 231.774582,187.672440 
	C231.774582,201.566223 231.774582,215.031815 231.775635,229.496765 
M277.749237,217.517639 
	C277.744812,214.357773 277.985199,211.168243 277.607697,208.053604 
	C277.469238,206.911484 275.932556,205.124420 274.921539,205.044205 
	C270.660370,204.706009 266.356934,204.901123 261.793610,204.901123 
	C261.793610,218.180740 261.793610,230.919189 261.793610,244.197754 
	C265.910400,244.197754 269.706329,244.048569 273.484528,244.243393 
	C276.700867,244.409256 277.902405,243.276230 277.808838,239.964905 
	C277.606964,232.819336 277.747437,225.664124 277.749237,217.517639 
M240.955521,169.385132 
	C237.505188,171.199799 234.051559,173.011826 233.886520,177.573853 
	C236.460068,178.538773 238.621262,179.349091 240.564362,180.077637 
	C242.317841,178.958893 243.934708,177.927307 246.058838,176.572098 
	C244.481705,174.045853 243.036682,171.731201 240.955521,169.385132 
M221.095596,183.509277 
	C220.556686,185.050217 220.017776,186.591156 219.105255,189.200348 
	C222.895752,186.678207 225.548264,184.913269 228.343506,183.053345 
	C227.909958,182.201324 227.404587,181.208191 226.897278,180.211243 
	C225.008331,181.245834 223.330627,182.164703 221.095596,183.509277 
M274.607666,171.457703 
	C274.271484,170.116226 274.136719,167.744049 273.560425,167.631439 
	C271.991150,167.324844 270.189789,167.835129 268.591858,168.360657 
	C268.274048,168.465179 268.252197,170.830276 268.432343,170.878113 
	C270.267548,171.365387 272.172913,171.588623 274.607666,171.457703 
M256.434509,173.077805 
	C257.973175,172.536377 259.511871,171.994949 261.050537,171.453522 
	C260.601837,170.319427 260.415649,168.508255 259.643311,168.208786 
	C258.463593,167.751328 256.242310,167.842087 255.639481,168.616165 
	C254.993378,169.445801 255.708588,171.335587 256.434509,173.077805 
z"/>
<path fill="#EEF1F0" opacity="1.000000" stroke="none" 
	d="
M273.693359,134.506989 
	C271.068115,139.794601 266.682098,136.751907 262.914154,136.626144 
	C259.573669,136.514648 256.051819,134.928726 252.961929,135.603973 
	C245.691422,137.192871 238.694321,140.007553 231.446793,141.742294 
	C229.299820,142.256180 226.687042,140.824112 223.993073,140.065277 
	C236.140778,133.650467 249.240295,130.845001 263.127350,132.417618 
	C266.577606,132.808350 269.977966,133.640259 273.693359,134.506989 
z"/>
<path fill="#306BA4" opacity="1.000000" stroke="none" 
	d="
M310.361023,244.929108 
	C304.749298,244.585709 299.417847,244.162674 293.636353,243.703934 
	C293.636353,233.787140 293.636139,223.876877 293.636444,213.966629 
	C293.636658,206.348984 293.558533,198.729736 293.712891,191.115204 
	C293.739838,189.786255 294.746979,188.477173 295.580383,187.637451 
	C295.563660,190.237534 295.024963,192.357574 295.012085,194.480835 
	C294.932220,207.633804 294.968842,220.787491 294.970154,233.940948 
	C294.971100,243.361893 295.499725,244.078064 304.847900,242.794952 
	C306.953583,242.505936 308.703735,239.626648 310.617554,237.939758 
	C310.840302,239.557037 311.063049,241.174301 311.666260,242.945251 
	C311.578217,243.682434 311.109741,244.265961 310.361023,244.929108 
z"/>
<path fill="#EEF1F0" opacity="1.000000" stroke="none" 
	d="
M306.292511,153.846878 
	C305.889038,155.863754 305.365967,157.565857 302.908905,155.396942 
	C300.387878,153.171570 297.933624,150.807648 295.149170,148.957245 
	C290.038574,145.561005 284.671387,142.552902 279.504272,139.237823 
	C278.688080,138.714188 278.359802,137.430054 277.925049,136.199463 
	C288.669434,138.387543 297.243286,144.310577 305.108154,152.463043 
	C305.703278,153.327026 306.019440,153.616806 306.335602,153.906586 
	C306.335602,153.906586 306.259003,153.872223 306.292511,153.846878 
z"/>
<path fill="#EEF1F0" opacity="1.000000" stroke="none" 
	d="
M207.328857,151.945724 
	C208.870209,152.088516 210.100204,152.326950 212.348755,152.762848 
	C208.811234,156.237076 205.998672,159.180573 202.939178,161.839981 
	C202.376709,162.328888 200.812729,161.665619 199.503265,161.307678 
	C201.869522,158.067932 204.443512,155.054657 207.328857,151.945724 
z"/>
<path fill="#E2E9F8" opacity="1.000000" stroke="none" 
	d="
M260.516541,120.400085 
	C260.660553,120.241150 261.033966,120.277847 261.664154,120.430038 
	C261.529266,120.562263 261.137604,120.578995 260.516541,120.400085 
z"/>
<path fill="#F6FAFA" opacity="1.000000" stroke="none" 
	d="
M306.216187,153.596649 
	C306.019440,153.616806 305.703278,153.327026 305.231720,152.752777 
	C305.416443,152.741119 305.756592,153.013916 306.216187,153.596649 
z"/>
<path fill="#085BB1" opacity="1.000000" stroke="none" 
	d="
M231.775116,228.997086 
	C231.774582,215.031815 231.774582,201.566223 231.774582,187.672440 
	C237.231583,187.672440 242.409409,187.672440 247.850159,187.672440 
	C247.850159,206.403931 247.850159,224.961838 247.850159,243.813354 
	C242.607239,243.813354 237.536285,243.813354 231.775635,243.813354 
	C231.775635,239.008606 231.775635,234.252686 231.775116,228.997086 
z"/>
<path fill="#045AB4" opacity="1.000000" stroke="none" 
	d="
M310.691650,237.532730 
	C308.703735,239.626648 306.953583,242.505936 304.847900,242.794952 
	C295.499725,244.078064 294.971100,243.361893 294.970154,233.940948 
	C294.968842,220.787491 294.932220,207.633804 295.012085,194.480835 
	C295.024963,192.357574 295.563660,190.237534 295.963715,187.731644 
	C297.115601,187.292770 298.163116,187.238266 299.701782,187.376465 
	C300.192993,187.569168 300.648041,187.621948 300.648041,187.621948 
	C300.648041,187.621948 301.006897,187.331787 301.006897,187.331787 
	C303.345886,187.288498 305.684906,187.245193 308.479065,187.571289 
	C309.496216,188.645599 310.058228,189.350525 310.620239,190.055466 
	C310.683777,203.724503 310.747284,217.393555 310.617279,231.625153 
	C310.270508,232.520462 310.347534,232.788788 310.654785,232.992676 
	C310.691742,234.370346 310.728729,235.748032 310.691650,237.532730 
z"/>
<path fill="#0FACCD" opacity="1.000000" stroke="none" 
	d="
M277.748535,218.015244 
	C277.747437,225.664124 277.606964,232.819336 277.808838,239.964905 
	C277.902405,243.276230 276.700867,244.409256 273.484528,244.243393 
	C269.706329,244.048569 265.910400,244.197754 261.793610,244.197754 
	C261.793610,230.919189 261.793610,218.180740 261.793610,204.901123 
	C266.356934,204.901123 270.660370,204.706009 274.921539,205.044205 
	C275.932556,205.124420 277.469238,206.911484 277.607697,208.053604 
	C277.985199,211.168243 277.744812,214.357773 277.748535,218.015244 
z"/>
<path fill="#095AAC" opacity="1.000000" stroke="none" 
	d="
M203.142212,243.880676 
	C203.167740,236.815033 203.167740,229.707382 203.167740,222.235046 
	C208.546738,222.235046 213.917313,222.235046 219.630737,222.235046 
	C219.630737,229.301636 219.630737,236.346085 219.630737,244.058578 
	C214.395309,244.058578 209.157181,244.058578 203.476227,243.922516 
	C203.033417,243.786453 203.116699,243.838684 203.142212,243.880676 
z"/>
<path fill="#306BA4" opacity="1.000000" stroke="none" 
	d="
M199.971619,203.761612 
	C205.942642,195.400894 208.044189,193.510895 213.692825,193.251740 
	C211.537964,195.235596 209.559784,197.471008 207.183701,199.139877 
	C204.179886,201.249680 201.522446,203.453201 202.195908,207.484726 
	C202.900452,211.702362 199.959167,211.813461 197.383896,211.854919 
	C194.305054,211.904495 191.436142,208.044418 192.223618,205.181747 
	C193.069824,202.105621 195.172882,201.408127 198.008820,202.672150 
	C198.307693,202.805359 198.572281,203.015503 198.595947,203.546265 
	C196.965622,204.888580 195.592117,205.874588 194.218613,206.860596 
	C195.197327,207.843338 196.255753,209.685364 197.135727,209.603760 
	C198.397995,209.486633 199.838394,208.162216 200.596832,206.968323 
	C201.020706,206.301086 200.220337,204.856125 199.971619,203.761612 
z"/>
<path fill="#276BB8" opacity="1.000000" stroke="none" 
	d="
M241.273590,169.400848 
	C243.036682,171.731201 244.481705,174.045853 246.058838,176.572098 
	C243.934708,177.927307 242.317841,178.958893 240.564362,180.077637 
	C238.621262,179.349091 236.460068,178.538773 233.886520,177.573853 
	C234.051559,173.011826 237.505188,171.199799 241.273590,169.400848 
z"/>
<path fill="#276BB8" opacity="1.000000" stroke="none" 
	d="
M221.374268,183.296432 
	C223.330627,182.164703 225.008331,181.245834 226.897278,180.211243 
	C227.404587,181.208191 227.909958,182.201324 228.343506,183.053345 
	C225.548264,184.913269 222.895752,186.678207 219.105255,189.200348 
	C220.017776,186.591156 220.556686,185.050217 221.374268,183.296432 
z"/>
<path fill="#276BB8" opacity="1.000000" stroke="none" 
	d="
M274.333130,171.671722 
	C272.172913,171.588623 270.267548,171.365387 268.432343,170.878113 
	C268.252197,170.830276 268.274048,168.465179 268.591858,168.360657 
	C270.189789,167.835129 271.991150,167.324844 273.560425,167.631439 
	C274.136719,167.744049 274.271484,170.116226 274.333130,171.671722 
z"/>
<path fill="#276BB8" opacity="1.000000" stroke="none" 
	d="
M256.132111,172.920258 
	C255.708588,171.335587 254.993378,169.445801 255.639481,168.616165 
	C256.242310,167.842087 258.463593,167.751328 259.643311,168.208786 
	C260.415649,168.508255 260.601837,170.319427 261.050537,171.453522 
	C259.511871,171.994949 257.973175,172.536377 256.132111,172.920258 
z"/>
<path fill="#306BA4" opacity="1.000000" stroke="none" 
	d="
M290.172119,179.209518 
	C287.836670,179.070755 285.291595,179.429916 283.258209,178.573761 
	C282.305298,178.172546 281.759094,175.287994 282.117188,173.788956 
	C282.385468,172.665970 284.336395,171.332230 285.641510,171.211792 
	C287.649872,171.026428 289.746796,171.800720 291.862915,172.625198 
	C291.919708,173.082535 291.699371,173.299316 291.346375,173.188354 
	C288.858856,173.137192 286.711548,173.105530 284.609619,173.398911 
	C284.400574,173.428101 284.028168,176.106781 284.486572,176.408417 
	C286.099121,177.469482 288.041199,178.029816 289.934967,178.888748 
	C290.011719,178.997345 290.172119,179.209518 290.172119,179.209518 
z"/>
<path fill="#045AB4" opacity="1.000000" stroke="none" 
	d="
M199.766174,203.825226 
	C200.220337,204.856125 201.020706,206.301086 200.596832,206.968323 
	C199.838394,208.162216 198.397995,209.486633 197.135727,209.603760 
	C196.255753,209.685364 195.197327,207.843338 194.218613,206.860596 
	C195.592117,205.874588 196.965622,204.888580 198.735397,203.880524 
	C199.131668,203.858490 199.560715,203.888824 199.766174,203.825226 
z"/>
<path fill="#EEF1F0" opacity="1.000000" stroke="none" 
	d="
M196.839478,165.857635 
	C197.717560,165.639343 198.652969,165.443314 200.241302,165.110443 
	C199.750702,166.803391 199.353821,168.172928 198.956955,169.542465 
	C198.587830,169.522034 198.218704,169.501617 197.849564,169.481186 
	C197.537567,168.491119 197.225555,167.501068 196.873886,166.142487 
	C196.834229,165.773956 196.896835,165.879898 196.839478,165.857635 
z"/>
<path fill="#306BA4" opacity="1.000000" stroke="none" 
	d="
M310.725220,189.721130 
	C310.058228,189.350525 309.496216,188.645599 308.910095,187.647675 
	C309.534058,188.032059 310.182129,188.709427 310.725220,189.721130 
z"/>
<path fill="#306BA4" opacity="1.000000" stroke="none" 
	d="
M292.030273,172.974548 
	C292.329315,174.467010 292.517792,176.067474 292.295135,177.780167 
	C291.883972,177.892410 291.677734,177.694519 291.768311,177.334778 
	C291.805695,175.749802 291.752533,174.524567 291.699371,173.299316 
	C291.699371,173.299316 291.919708,173.082535 292.030273,172.974548 
z"/>
<path fill="#306BA4" opacity="1.000000" stroke="none" 
	d="
M291.986328,177.992172 
	C291.648438,178.443726 291.208252,178.795517 290.470093,179.178406 
	C290.172119,179.209518 290.011719,178.997345 290.152039,178.735260 
	C290.754120,178.213623 291.215942,177.954071 291.677734,177.694519 
	C291.677734,177.694519 291.883972,177.892410 291.986328,177.992172 
z"/>
<path fill="#306BA4" opacity="1.000000" stroke="none" 
	d="
M300.753204,187.248581 
	C301.006897,187.331787 300.648041,187.621948 300.648041,187.621948 
	C300.648041,187.621948 300.192993,187.569168 300.091064,187.445892 
	C300.159271,187.270187 300.329376,187.217789 300.753204,187.248581 
z"/>
<path fill="#306BA4" opacity="1.000000" stroke="none" 
	d="
M310.743317,232.743164 
	C310.347534,232.788788 310.270508,232.520462 310.547760,232.088318 
	C310.725159,232.157181 310.778503,232.325424 310.743317,232.743164 
z"/>
<path fill="#045AB4" opacity="1.000000" stroke="none" 
	d="
M291.768311,177.334778 
	C291.215942,177.954071 290.754120,178.213623 290.075256,178.626648 
	C288.041199,178.029816 286.099121,177.469482 284.486572,176.408417 
	C284.028168,176.106781 284.400574,173.428101 284.609619,173.398911 
	C286.711548,173.105530 288.858856,173.137192 291.346375,173.188354 
	C291.752533,174.524567 291.805695,175.749802 291.768311,177.334778 
z"/>
</svg>